<?xml version="1.0" encoding="UTF-8" standalone="no"?>
<!-- Created with Inkscape (http://www.inkscape.org/) -->

<svg
   width="100mm"
   height="100mm"
   viewBox="0 0 100 100"
   version="1.1"
   id="svg1"
   xml:space="preserve"
   inkscape:version="1.3.2 (091e20ef0f, 2023-11-25, custom)"
   sodipodi:docname="logo.svg"
   xmlns:inkscape="http://www.inkscape.org/namespaces/inkscape"
   xmlns:sodipodi="http://sodipodi.sourceforge.net/DTD/sodipodi-0.dtd"
   xmlns="http://www.w3.org/2000/svg"
   xmlns:svg="http://www.w3.org/2000/svg"><sodipodi:namedview
     id="namedview1"
     pagecolor="#505050"
     bordercolor="#ffffff"
     borderopacity="1"
     inkscape:showpageshadow="0"
     inkscape:pageopacity="0"
     inkscape:pagecheckerboard="1"
     inkscape:deskcolor="#d1d1d1"
     inkscape:document-units="mm"
     inkscape:zoom="1.2259359"
     inkscape:cx="265.10358"
     inkscape:cy="163.95637"
     inkscape:window-width="1920"
     inkscape:window-height="1048"
     inkscape:window-x="0"
     inkscape:window-y="32"
     inkscape:window-maximized="1"
     inkscape:current-layer="layer1" /><defs
     id="defs1" /><g
     inkscape:label="Layer 1"
     inkscape:groupmode="layer"
     id="layer1"><circle
       style="fill:#000000;stroke-width:3.669;paint-order:markers stroke fill"
       id="path1"
       cx="50"
       cy="50"
       r="50" /><path
       id="rect4"
       style="fill:#526474;stroke-width:6.94229;paint-order:markers stroke fill"
       d="m 68.175092,33.635602 c 1.34883,0.456157 2.499011,1.133345 3.445888,2.035345 1.915647,1.804124 2.87326,4.593266 2.87326,8.367409 v 22.67599 h 5.834125 V 33.635602 Z" /><path
       id="path2"
       style="fill:#f3d63e;fill-opacity:1;stroke-width:6.94229;paint-order:markers stroke fill"
       d="m 40.823777,37.786128 c -1.712814,0 -3.301423,0.414744 -4.766332,1.244224 -1.442372,0.829482 -2.490784,2.042605 -3.144359,3.639357 -0.653576,1.596753 -0.980192,3.898572 -0.980192,6.905444 V 66.714346 H 47.178888 V 45.251474 c 0,-2.488446 -0.495718,-4.354787 -1.487347,-5.599009 -0.991632,-1.244222 -2.614059,-1.866337 -4.867764,-1.866337 z" /><path
       id="path3"
       style="fill:#f06362;fill-opacity:1;stroke-width:6.94229;paint-order:markers stroke fill"
       d="m 62.053275,37.786128 c -2.524149,0 -4.620056,0.777642 -6.287798,2.332922 -1.66774,1.534541 -2.501656,4.002258 -2.501656,7.403134 V 66.714346 H 68.442502 V 45.904693 c 0,-2.239602 -0.201996,-3.84673 -0.607664,-4.821369 -0.383129,-0.99538 -1.093345,-1.793758 -2.130049,-2.395133 -1.036706,-0.601374 -2.254218,-0.902063 -3.651514,-0.902063 z" /><path
       id="rect3"
       style="fill:#13ab9d;fill-opacity:1;stroke-width:6.94229;paint-order:markers stroke fill"
       d="M 19.235584,33.635602 V 66.714346 H 25.84796 V 33.680187 Z"
       sodipodi:nodetypes="ccccc" /><path
       style="fill:#f37634;fill-opacity:1;stroke-width:6.94229;paint-order:markers stroke fill"
       d="m 46.898568,33.635602 c 0.649694,0.222602 1.253905,0.492869 1.801784,0.822227 1.712815,1.016115 2.918746,2.436608 3.617395,4.261468 1.854609,-2.519094 4.076962,-4.209838 6.662169,-5.083695 z"
       id="path6" /><path
       style="fill:#f37634;fill-opacity:1;stroke-width:6.94229;paint-order:markers stroke fill"
       d="m 31.290191,33.680185 v 4.634737 c 1.126852,-1.617491 2.625582,-2.913561 4.496156,-3.888201 0.593047,-0.315576 1.215649,-0.575595 1.860798,-0.791121 z"
       id="rect5" /></g></svg>
